# xmcd
#
# Track frame offsets:
#	150
#	22196
#	33201
#	65195
#	83110
#	95612
#	109701
#	118729
#	136169
#	153632
#	164543
#	193449
#	202949
#
# Disc length: 2902 seconds
# Revision: 0
# Processed by: cddbd v1.5.2PL0 Copyright (c) Steve Scherf et al.
# Submitted via: dBpowerAMP V12.0
#
DISCID=ba0b540d
DTITLE=John Chopping - John Chopping
DYEAR=2016
DGENRE=Blues
TTITLE0=Through The Mining Towns
TTITLE1=Trippy Hippie
TTITLE2=Leaving Blues
TTITLE3=From Blue To Red
TTITLE4=What A Wonderful World
TTITLE5=Albatross
TTITLE6=We Meet Again
TTITLE7=I've Got To Let You Know
TTITLE8=Somewhere Down The Line
TTITLE9=Juke House Stomp
TTITLE10=Hilltop Blues
TTITLE11=Friday's Rag
TTITLE12=Mining Towns Revisited
EXTD=
EXTT0=
EXTT1=
EXTT2=
EXTT3=
EXTT4=
EXTT5=
EXTT6=
EXTT7=
EXTT8=
EXTT9=
EXTT10=
EXTT11=
EXTT12=
PLAYORDER=
